<svg xmlns="http://www.w3.org/2000/svg" viewBox="0 0 1920 1080"><defs><style>.cls-1,.cls-4{isolation:isolate;}.cls-2,.cls-20,.cls-30,.cls-34{opacity:0.2;}.cls-3,.cls-34{fill:#231f20;}.cls-18,.cls-4{fill:#fff;}.cls-4,.cls-7{opacity:0.2;}.cls-5{fill:#30bfef;}.cls-13,.cls-17,.cls-23,.cls-24,.cls-6{fill:none;}.cls-6{stroke:#6d9974;stroke-width:8px;stroke-dasharray:0 20;}.cls-23,.cls-6{stroke-linecap:round;stroke-linejoin:round;}.cls-8{fill:#676767;}.cls-9{fill:#cbcbca;}.cls-10{fill:#e63d31;}.cls-11{fill:#1a1a1a;}.cls-12,.cls-33{opacity:0.1;mix-blend-mode:multiply;}.cls-13{stroke:#4d4e4e;stroke-width:3.49px;}.cls-13,.cls-17,.cls-24{stroke-miterlimit:10;}.cls-14{fill:#faaf3a;}.cls-15{fill:#f05a26;}.cls-16{fill:#f69220;}.cls-17{stroke:#f05a26;stroke-width:3.33px;}.cls-19{fill:#1c2833;}.cls-20,.cls-30{mix-blend-mode:darken;}.cls-21{fill:#231f1f;}.cls-22,.cls-30{fill:#5e5f5e;}.cls-23{stroke:#fff;stroke-width:7.08px;}.cls-24{stroke:#1c2833;stroke-width:6.06px;}.cls-25{fill:#2d2d2d;}.cls-26{fill:#444344;}.cls-27{fill:#615e5f;}.cls-28{fill:#aaa;}.cls-29{fill:#64c9ec;}.cls-31{fill:#6d9974;}.cls-32{fill:#597a5e;}.cls-33{fill:#221f1f;}</style></defs><title>largesf</title><g class="cls-1"><g id="Layer_1" data-name="Layer 1"><g class="cls-2"><path class="cls-3" d="M507.78,958.7c-41.73,3.93-82,18.5-123.89,20.83-40.19,2.24-79.16-6.78-117.91-18.43l10.71-19.78s92.51,27.53,151.09-62l-15.69-4.47,4.66-16.38L429.33,862l1.87-6.55L323.26,824.71l-1.87,6.56,26.09,7.43-4.66,16.38L302.19,843.5s-18.58,21-41.58,36.27l-79.28-22.58A177.8,177.8,0,0,1,175.52,824l-21.44-6.11,3.42-12,18.73,5.33,1.87-6.55L118.74,787.7l7.36-25.86,58,16.52c-25.29-7.21,4.8-112.83,30.09-105.63l-58-16.52,6-20.94,12,3.41,17.38-27.28h0c-.32,1-9.46-.7-21.47-3.88l2.3-8.09c6.18-9.54,19.85-23,37.58,5.45,24.47,39.19,46.83-21.08,46.83-21.08s-17.34,36.45-30.53-1.16c-11.21-32-37.33-19.26-44.9-14.73l5.86-20.58-13.27-3.78-17.14,60.17c-11.51-3.54-19.82-6.8-19.56-7.79h0l.4,32.35,11.27,3.21-6,20.94L95.78,639c-29.47-8.39-59.56,97.23-30.09,105.63l47.14,13.43-7.36,25.86-15.35-4.37-1.87,6.55,15.35,4.37-3.42,12L9.53,776.67,77.4,807.81s-11.49,56.94,64.17,77.31l-7.2,39c-21.35-3.39-43-4.37-64.21-.64C31.33,930.32-2.92,952.25-36,973.7v155.48l793.93-19C718.43,1013.51,611.75,948.91,507.78,958.7ZM412.31,857.16l-4.67,16.38L391,868.81l4.67-16.38Zm-21.06-6-4.66,16.37-20.45-5.82,4.66-16.38ZM351.93,840l14.43,4.12-4.67,16.37-14.43-4.11ZM237.72,880.34l15,4.28a91.2,91.2,0,0,1-18.59,8.24Zm-4.44-1.27-4.3,15.1a39.85,39.85,0,0,1-17.39,0l5.61-19.7Zm-20.52-5.84-5.57,19.55a32.73,32.73,0,0,1-10.69-7.12L201,869.87Zm-16.21-4.62-3.69,12.94A63.32,63.32,0,0,1,183.92,865ZM126.6,810l-13.15-3.75,3.42-12L130,798Zm4.44,1.26,3.42-12,18.6,5.29-3.43,12Z"/></g><g class="cls-2"><path class="cls-3" d="M1803.67,885c-67.67,1-133.76,23.13-193.36,55.19-21.66,11.65-42.87,24.74-65.44,34.26l-3-72.53c129.65-15.88,124-112.55,124-112.55l119.33-35.48-155.66,21.36-2.84-20.63,26.36-3.62-1.54-11.26-26.36,3.62-6.1-44.41,81-11.11c50.59-6.94,25.71-188.32-24.89-181.38l-81,11.11-4.94-36,19.34-2.65,8.25-53.3h0c.19,1.7-14.29,5.13-34.12,8.27l-14.18-103.31-22.78,3.12,4.85,35.34c-11.43-9.25-51.55-36.4-77.56,13.78-30.58,59-50.66-5.24-50.66-5.24s22.78,104.7,72.35,45.76c35.93-42.72,55.33-17.37,63.29-.19l1.91,13.9c-20.58,2.43-36.06,3.09-36.34,1.36h0l22.3,49.11,20.59-2.82,4.93,36-99.59,13.66c43.43-6,68.32,175.42,24.89,181.38l99.59-13.66,6.09,44.41-101.93,14L1502,771.7l32.17-4.41,2.83,20.63L1500.18,793c-5.06,21.48-10.92,39.13-17.39,53.49l-136.12,18.68c-34.39-30.51-60.13-69.6-60.13-69.6l-69.76,9.57L1212.92,777l44.81-6.15-1.55-11.25L1070.83,785l1.54,11.26,21.6-3,3.86,28.12-26.94,3.7C1146.56,986.69,1305.7,963,1305.7,963l12.61,34a471.37,471.37,0,0,0-65.28,14c-57.25,16.79-111.73,47.07-150,92.84l887.39,28.47v-181C1940.67,905.37,1871.34,883.93,1803.67,885Zm-698.21-64.58-3.86-28.13,28.53-3.91,3.86,28.12Zm36.16-5-3.86-28.12,35.11-4.82,3.86,28.13Zm42.74-5.86-3.85-28.12,24.78-3.4,3.86,28.12Zm419.58-51.85,2.83,20.64-22.58,3.1-2.83-20.64Zm-30.22,4.15,2.84,20.63-31.93,4.38-2.83-20.63Zm-97,96.91c-5.84,10.59-12.09,18.88-18.63,25.2l-3-22.23Zm-29.31,4,3.72,27.1a54.51,54.51,0,0,1-19.32,9.25l-4.6-33.58Zm-27.83,3.82,4.64,33.83c-9.46.91-19.11-.7-28.69-4.12l-3.56-25.92Zm-35.24,4.83,3,21.5a151,151,0,0,1-28.75-18Z"/></g><circle class="cls-4" cx="959.8" cy="543.5" r="528.6"/><circle class="cls-5" cx="959.8" cy="543.5" r="437.5"/><path class="cls-6" d="M1503.56,239.42c-32.25-12.84-68.24-17.66-102.08-9.95s-65.19,28.7-82.11,59c-10.62,19-15.42,41-27.1,59.36-26,40.88-87.13,54-127.62,27.47a11,11,0,0,1,10.57,3.18"/><g class="cls-7"><path class="cls-3" d="M363.67,281.27c-35.36,11.23-51.12-5.36-69.05-35.36,8.21,45.59-48.77,76.09-90,57-11.23-4.69-17.27-12.57-21.29-21.78-48.77,19.1-120.16,7.2-98.88-25.65,16.26-26,69.05-20.78,94.53-18.1-20.62-7.87-43.08-20.78-53.8-40.89-16.09-28.32-7.71-88.15,35.19-75.75,25.64,6,40.39,42.91,47.77,64.86,9.55-80.11,130.38-70.05,104.24,19.1,7.71-27.48,29.32-41.56,56.64-37.37C436.91,177.2,417.46,264.35,363.67,281.27Z"/></g><path class="cls-8" d="M1071.51,757.1c-26.76-17.78-54.58-42-81.59-74.76l13.25-11.65C1123.59,817,1261,784.83,1262.34,784.49l4.74,17.91c-1.53.38-38.1,9.2-90.73-1.22C1147.64,795.49,1110.71,783.15,1071.51,757.1Z"/><path class="cls-9" d="M1216.65,762.1h0c-5.27-1.48-12-1.63-14.67,3.16a10.45,10.45,0,0,0-1.13,5c-.1,7.1,4.09,13.89,9.62,18.31s12.25,6.78,18.93,8.57c-8.62-7.93-23.26-6.91-30.16,2.12-2.85,3.73-4.35,9.23-1.93,13.48,1.82,3.18,5.36,4.87,8.8,5.69a26.77,26.77,0,0,0,19-2.51c-9.51-1.68-18.66,5.91-21.25,15.4a15.3,15.3,0,0,0,.18,9.89c3,7.21,12.92,8.6,19.44,5.09,7.16-3.86,11.71-12.28,11.23-20.81-1.17,4.82-1.94,10.35.8,14.58,3.34,5.13,10.81,5.88,15.77,2.85,12.33-7.54,14.55-31.85,7.86-44.58C1250.34,781.57,1234.27,767,1216.65,762.1Z"/><path class="cls-10" d="M1259.05,803.12c3.49,10.67,9.84,29.14,22.07,31.77,23.57,5.14,3.75-31.87-1.5-42.78,9.35,12.16,18.91,24.24,29.92,34.86,5.87,5.67,11.92,11.49,19.07,15.34,5.17,2.79,18.13,8.08,21.63.49s-7.93-19.68-12.6-24.68c-13.11-14-32.49-23.69-51-25,14,1,28,1.73,41.93,1.57a193.42,193.42,0,0,0,26.48-1.79c6.74-1,16.85-2.11,21.2-8.32,12.27-17.53-33.48-18.41-40.64-18.57-28.07-.63-48.65,5.77-74.6,15.2l-1.84.67c-5-13.65-19.78-57.36-38.81-53.54-24.56,5.83,18,57.12,32.71,62Z"/><path class="cls-11" d="M765.23,935.46A439.12,439.12,0,0,0,1080,964.27l20.81-266.78-277.29-51Z"/><path class="cls-8" d="M802.31,693.69c26.37-16.37,53.66-39.07,80-70.49L868.8,610.81c-117.29,140.05-255.2,100.41-256.58,100l-4.37,17.68c1.54.47,38.26,11.3,90.62,3.7C727,728,763.68,717.67,802.31,693.69Z"/><path class="cls-9" d="M630.27,780.26h0c3.75,4.19,9.45,8.1,14.24,5.68a9.61,9.61,0,0,0,3.57-3.43c3.8-5.78,3.76-13.72,1.32-20.46s-7-12.49-11.77-17.73c3.26,11.38,16.36,18.8,27,15.29,4.41-1.46,8.57-5.12,8.71-10,.11-3.64-2-7-4.57-9.64a28.75,28.75,0,0,0-17.62-8.66c7.29,6.75,19.11,5.69,26.31-.64a14.24,14.24,0,0,0,5-8.23c1.18-7.62-6.59-14.35-14-15.14a21.29,21.29,0,0,0-20.52,10.74c3.52-3.3,7.07-7.4,6.93-12.42-.18-6.1-6.2-10.93-12.05-11.24-14.52-.77-29.15,17.93-30.07,32.17C611.53,745.25,617.72,766.27,630.27,780.26Z"/><path class="cls-10" d="M615.9,729.65c-3.27,10.5-9.24,28.66-21.4,30.64-23.44,3.87-4.4-32.14.62-42.79-9.1,11.68-18.4,23.27-29.18,33.31-5.75,5.36-11.67,10.87-18.73,14.34-5.11,2.51-18,7.11-21.6-.68s7.51-19.3,12.07-24.05c12.81-13.36,32-22,50.43-22.32-13.94.28-27.9.21-41.85-.7a196,196,0,0,1-26.5-3.23c-6.75-1.38-16.87-3-21.35-9.49-12.62-18.23,33.07-16.63,40.22-16.4,28,.89,48.72,8.42,74.85,19.28l1.85.77c4.72-13.42,18.57-56.42,37.67-51.55,24.65,7.17-16.82,56.26-31.41,60.3Z"/><path class="cls-8" d="M813.91,956.08A436.65,436.65,0,0,0,959.8,981a442,442,0,0,0,61.58-4.3l34.11-295.31L860.07,659.62Z"/><path class="cls-12" d="M813.91,956.08A433.53,433.53,0,0,0,871,972l63.28-305.08-74.16-7.32Z"/><line class="cls-13" x1="929.3" y1="823.21" x2="912.28" y2="978.45"/><path class="cls-14" d="M930.52,829.66a40.6,40.6,0,0,1-8.54-1.53c-15.07-4.41-27.25-17.59-34.32-37.12-7.73-21.4-8.35-47.3-1.73-72.94,11.81-45.75,44.18-78.63,75.29-76.49a40.6,40.6,0,0,1,8.53,1.52c32.49,9.52,49,59.93,36,110.07C994,798.92,961.63,831.8,930.52,829.66Z"/><path class="cls-15" d="M931.49,812.6a25.46,25.46,0,0,1-5.26-.94c-10-2.92-18.27-12.39-23.44-26.68-6.52-18-7-40.16-1.23-62.34,9.68-37.48,35.45-65.6,58.69-64a24.52,24.52,0,0,1,5.24.94c10.25,3,19,13.51,24,28.84,5.76,17.57,6,39.51.66,60.18C980.5,786.08,954.72,814.19,931.49,812.6Z"/><path class="cls-16" d="M932.46,795.53a8.84,8.84,0,0,1-2-.35c-4.69-1.37-9.39-7.44-12.57-16.23-5.3-14.65-5.56-33-.72-51.73,8.13-31.51,28.71-52.44,42.09-51.52a9,9,0,0,1,1.94.35c3.65,1.07,9.22,6.39,13,17.88,4.71,14.4,4.84,32.66.34,50.09C966.41,775.52,945.84,796.45,932.46,795.53Z"/><path class="cls-17" d="M935.16,783.42a7.59,7.59,0,0,1-1.58-.29c-3.74-1.09-7.49-5.93-10-12.94-4.22-11.69-4.43-26.35-.58-41.27,6.49-25.14,22.91-41.84,33.58-41.1a7.3,7.3,0,0,1,1.55.28c2.91.85,7.36,5.09,10.36,14.26,3.77,11.49,3.87,26,.27,40C962.25,767.45,945.83,784.15,935.16,783.42Z"/><path class="cls-12" d="M1066.32,733.92s-146.24,46.22-216.87-8l4-31.24Z"/><path class="cls-18" d="M1097.94,373.59c-.18-.47-.34-.94-.5-1.41l-69.92,18.72-31.59-37.51a231.73,231.73,0,0,1-24.54-11.46l-1.84-1c-4.57.39-10.48,1.6-12.14,1.78-16.47,1.79-33.45,1.39-48.89-5.81a62.33,62.33,0,0,1-13-8.31c-3.25,1-6.54,1.91-9.89,2.69a84.19,84.19,0,0,1-13.6,2.06l-2.41,17.12L799.93,437l-.77,102.1,67.46,119.39L970.89,699l126-31,51.37-147.42,15.6-47.06L1149.74,460C1114.33,446.83,1112.45,410.68,1097.94,373.59Z"/><path class="cls-10" d="M1200.13,592.55c.11-44.88-38.73-95.54-38.73-95.54,3.41-3.54,6.63-7,9.75-10.35C1131,458.88,1088,435,1046.62,412.47q-21.13-11.52-42.71-21.64c19.45,24.53,19.76,79.31,6.71,113.38-15.48,40.38-53.87,53.88-85.57,40.18s-44.7-49.38-29.23-89.76c13.12-34.21,49.63-73.37,79.75-76.22a525,525,0,0,0-55.34-19.34c-19.75-5.62-39.68-11.33-59.68-16.77a25,25,0,0,1-1.35,2.35,27.86,27.86,0,0,1-9,11.36l-2.77,2.58a34.53,34.53,0,0,1-11,5.91l-11.21,24.79c-34.92.85-57.43,19.86-57.43,19.86,6.47-2.26,25,4,25,4-52.7,16-70.25,60.06-70.25,60.06a26.92,26.92,0,0,1,20.84-7.5c-43.27,53.76-6,87.33-6,87.33-1-3.78,3.25-21,3.25-21-.33,51.59,30,98.66,30,98.66-1.12-6.45,1.72-37.12,1.72-37.12,0,35,29.63,70.14,29.63,70.14-3.17-5.62-1.91-36.23-1.91-36.23,8,29.25,21.29,47.47,30.85,57.53a66.67,66.67,0,0,0,11.64,10.12c1.61,1.09,3.21,2.13,4.79,3.15h0l-.35.14a117.06,117.06,0,0,1,23.57,14.4c-27.83-21.85-17.86-10.77,1-4.74,13.83,4.42,22.43,9.84,35.56,9.58,27.27-.56,54.22-.24,81.51.83,29.84,1.16,48.44-3.19,76.33-6.94q8.54.19,17.06.43c11.09-5.75,22.22-10.94,33.9-15.6,1.9-.76,3.83-1.31,5.75-1.91A319.62,319.62,0,0,0,1141,663c1.14,7.67-2.89,18.72-7.71,28.65a79.73,79.73,0,0,1,14.45-.86c.14-.15.24-.29.38-.43a32.32,32.32,0,0,1,5.29-4.34l-1.88.56c15.5-26.26,20.43-60.46,20.43-60.46,7.14,13.52-2.76,48.79-2.76,48.79,43.69-47.15,1.19-141.68,1.19-141.68C1184.11,546.76,1200.13,592.55,1200.13,592.55Z"/><path class="cls-10" d="M1173.54,627.94s-17.7,89-66.77,117.52c0,0,20.92-33.75,25.18-50.62,0,0-31.49,65.81-132.89,61.17,0,0,28.23-4.93,52.78-27.55,0,0-139.26,40.06-219-41.52l188.71-8.21s97.28-63.33,99.26-63.13S1173.54,627.94,1173.54,627.94Z"/><path class="cls-18" d="M868.87,506.45c23.76,18.32-41.45,21.82-41.45,21.82s-9.27-23.2-9.09-41.55S845.12,488.13,868.87,506.45Z"/><ellipse class="cls-10" cx="910.35" cy="487.06" rx="23.04" ry="9.34" transform="translate(263.93 1292.12) rotate(-79.39)"/><polygon class="cls-12" points="825.27 388.05 1184.13 533.26 1163.94 500.5 878.29 349.33 836.19 359.86 825.27 388.05"/><ellipse class="cls-8" cx="804.81" cy="849.94" rx="11.73" ry="12.39" transform="translate(-39.4 39.12) rotate(-2.72)"/><ellipse class="cls-8" cx="809.5" cy="812.51" rx="11.73" ry="12.39" transform="translate(-37.62 39.3) rotate(-2.72)"/><ellipse class="cls-8" cx="818.5" cy="775.39" rx="11.73" ry="12.39" transform="translate(-35.85 39.69) rotate(-2.72)"/><ellipse class="cls-8" cx="1067.38" cy="815.83" rx="11.78" ry="12.44" transform="translate(-37.49 51.54) rotate(-2.72)"/><ellipse class="cls-8" cx="1063.23" cy="855.01" rx="11.78" ry="12.44" transform="translate(-39.35 51.38) rotate(-2.72)"/><path class="cls-19" d="M667.76,336.41l18.1-64.11,28.23-93.22,32.25,17.72s-16.07,139.07,18.28,141.85c56.6,4.58,87.51-76.08,115.94-114.34,43-57.89,110.57-91.62,179.65-67.28,52,18.34,107.81,50.6,135.74,102.56,22.88,42.56,9.76,75-11.08,113.26-15.72,28.84-39.07,65.69-7,92.69,40.3,33.95,91.25-19.72,126.69-37.14,16.81-8.26,38.35,16.5,38.35,16.5l-57.68,95"/><g class="cls-20"><path class="cls-21" d="M927,283.45c-2.09-4.73-2.12-12.44-1.71-17.52a48,48,0,0,1,5.51-18.29c8.09-15.56,23.7-22.3,40-21.12,13.21.95,27.78,3,39.8,9.21a56.55,56.55,0,0,1,28.88,36.62,65.54,65.54,0,0,1,1.91,13.8c.18,7.64-1.85,34.32-9,39.7-5.26,3.73-16.86-.57-22.75-.39-13-.09-15.77,9.76-18.71,21.44-1.69,7.88-7.53,28.41-19,20.87-8.51-5.52-5.8-20.6-4.11-28.48.14-1.12.36-2.44.63-3.8-2.44,9.64-6.53,24.57-17,22.31-12.55-2.77-.82-23.48,1.94-30.5-5.45,8.39-9.88,21.88-22,20.68-17-1.57-7.37-24-.85-33,3.54-5.31,10-10,7.81-17C936.63,292.24,929.57,289.15,927,283.45Z"/></g><path class="cls-18" d="M923.86,270.93c-2.09-4.73-2.11-12.44-1.71-17.51a48.22,48.22,0,0,1,5.52-18.3c8.09-15.56,23.7-22.3,40-21.12,13.21.95,27.79,3,39.81,9.21a56.58,56.58,0,0,1,28.88,36.62,64.89,64.89,0,0,1,1.9,13.81c.19,7.63-1.84,34.31-9,39.7-5.26,3.72-16.86-.58-22.76-.4-13-.09-15.76,9.76-18.7,21.44-1.69,7.88-7.53,28.42-19,20.87-8.5-5.52-5.8-20.6-4.11-28.48.15-1.12.36-2.44.64-3.8-2.45,9.64-6.54,24.57-17,22.31-12.56-2.76-.82-23.48,1.93-30.5-5.44,8.39-9.87,21.88-22,20.68-17-1.57-7.37-24-.85-32.95,3.53-5.31,10-10,7.81-17C933.54,279.72,926.48,276.63,923.86,270.93Z"/><path class="cls-22" d="M985.72,272.88c15.06-4.91,32,19.8,13.6,26.6a16.25,16.25,0,0,1-21.64-11.14c-2.93-10.73,2.67-14,8-15.46Z"/><path class="cls-22" d="M953.13,262.71c12.54-4.08,26.62,16.48,11.33,22.14a13.52,13.52,0,0,1-18-9.27c-2.44-8.94,2.22-11.69,6.69-12.87Z"/><g class="cls-20"><path class="cls-22" d="M1007.51,223.21a56.58,56.58,0,0,1,28.88,36.62,64.89,64.89,0,0,1,1.9,13.81c.19,7.63-1.84,34.31-9,39.7-5.26,3.72-16.86-.58-22.76-.4-10.75-.07-14.51,6.67-17.15,15.63a29.88,29.88,0,0,1,8.86-17.31c6.17-5.85,9.52-6.65,10-16.25.27-13.75-4-27.94-12.61-38.07-6.27-6.8-12.64-14.45-13.1-24.8-.32-6.13,3.08-10.88,7.31-15.13A73.23,73.23,0,0,1,1007.51,223.21Z"/></g><path class="cls-23" d="M1072.06,536S1010.47,710.58,853.74,622"/><path class="cls-19" d="M1036.2,457.58c-4.56-2.59-120.11-54.48-120.11-54.48S831.22,528.17,936.26,556,1036.2,457.58,1036.2,457.58Z"/><line class="cls-24" x1="910.35" y1="447.25" x2="821.97" y2="382.9"/><path class="cls-18" d="M1096.71,544.58s-5.87-63.73-53.93-24.55C1042.78,520,1075.79,494.36,1096.71,544.58Z"/><ellipse class="cls-12" cx="652.94" cy="854.62" rx="24.49" ry="17.2" transform="translate(-333.04 425.03) rotate(-29.08)"/><ellipse class="cls-25" cx="649.35" cy="848.82" rx="24.82" ry="17.2" transform="translate(-330.68 422.56) rotate(-29.08)"/><polygon class="cls-25" points="671.04 836.76 638.58 762.79 585.29 792.42 627.66 860.89 671.04 836.76"/><ellipse class="cls-26" cx="608.81" cy="773.02" rx="45.77" ry="31.72" transform="translate(-298.95 393.3) rotate(-29.08)"/><polygon class="cls-26" points="648.82 750.78 588.94 614.33 490.65 668.99 568.81 795.27 648.82 750.78"/><polygon class="cls-27" points="599.37 576.97 554.17 458.83 365.01 557 445.41 656.88 599.37 576.97"/><ellipse class="cls-28" cx="459.59" cy="507.91" rx="106.56" ry="58.74" transform="translate(-182.3 268.81) rotate(-27.43)"/><path class="cls-29" d="M396.48,577.8c-3.75-31.56,20.62-68.94,61.64-90.23,35.82-18.59,74.35-19.72,99.29-5.58-4.13,26.39-31.09,57.47-70.76,78.06C454.09,577,420.66,582.78,396.48,577.8Z"/><ellipse class="cls-27" cx="522.39" cy="616.92" rx="86.73" ry="47.81" transform="translate(-225.46 309.99) rotate(-27.43)"/><path class="cls-30" d="M554.17,458.83a33.56,33.56,0,0,0-6.17-8.32c-9.57,35.15-43.77,103.24-165.75,122.55,24,11.71,64.82,7.54,104.4-13C538.89,532.94,569.12,487.62,554.17,458.83Z"/><polygon class="cls-22" points="971.55 288.86 953.8 300.6 970.38 309.54 971.55 288.86"/><ellipse class="cls-18" cx="849.45" cy="457.85" rx="19.06" ry="10.45" transform="translate(83.99 1045.44) rotate(-65.84)"/><line class="cls-24" x1="1010.39" y1="479.4" x2="1122.04" y2="479.4"/><path class="cls-31" d="M1716.67,157.26c17.35,23.74,52.64,16.13,73.15,1.1,9-6.56,17.16-17.67,27-22,13.94-6.67,22.43,8,14.44,19.49-7.29,11-21.23,17.73-33.56,21.65,11.94-4.6,29.39-2.82,37.81,7.82,12,14.5-3.75,25.88-17.21,28.64-12,2.84-23.37-.19-34.9-3.57,11.44,4.8,24.69,10.38,26.42,24.43,1.89,15-10.66,21.79-23.47,24.68a46,46,0,0,1-22.31-1c-14.63-4-26.6-13.59-35.74-25.48C1720.54,223,1713,212,1710,199.43c-2.25-11-2.48-29.58,5.86-38.05"/><path class="cls-32" d="M1527.36,219.65s64,30.24,88.94-100.34,178.23-24.25,144.63,63.44S1603.39,320.42,1527.36,219.65Z"/><path class="cls-31" d="M1534.94,221.89c17.7,3.36,61.71.45,81.36-102.58,19.58-102.66,118.52-58.89,143.62,7.13a28.93,28.93,0,0,0-3.42-3.31c-10.46-8.51-17,3.17-20.25,12.08.38-5.82-3.64-12.31-6.78-17-7.07-10.44-19.87-18.44-32.66-18.8-7.41-.21-16.33,3.7-21.2,9.16-9.55,10.71-13.5,27.7-16.14,41.44-4.14,21.53-7,43.51-15.18,64-5.54,13.89-14,27.89-26,37.14-6.77,5.22-18.39,8.09-26.79,7.71-15.93-.73-30.07-11.68-41.57-21.78A132.56,132.56,0,0,1,1534.94,221.89Z"/><path class="cls-31" d="M1537.08,225.24c1.88-4.13,5.48-7.5,8.59-10.72,3.39-3.51,7-7.05,9.44-11.29,2-3.46,4-8,2.29-12-1.8-4.23-5.9-1.33-7.86,1.11a37.52,37.52,0,0,0-5.93,11.35c-1.39,4.08-2.32,8.31-3.67,12.41,1.41-4.29,1.22-9.47.87-13.92-.17-2.08-.47-6.26-2.81-7.24-4.72-2-4.57,8.82-4.54,10.86.07,4.88,0,9.74-.15,14.61-1.44-2.31-2.12-5.09-3.26-7.55-1-2-1.63-4.77-3.74-6-1.61-.91-3-.16-3.6,1.53-1.17,3.62,1.34,7.1,3.47,9.77a73.8,73.8,0,0,0,8.68,9.67"/><path class="cls-31" d="M1700.25,72.56c9.8,1,19.22,6,28,10.2,9.57,4.52,19.32,9.41,29.76,11.55,8.51,1.75,19.28,2.6,26.29-3.66,7.45-6.64-1.35-13.05-7.71-15.39-8.63-3.17-18.3-4.23-27.43-4.27-9.37,0-18.7,1-28.06,1.09,9.8-.09,20.3-4.08,29.19-7.89,4.15-1.78,12.54-5.33,12.92-10.82.76-11-21.28-3.26-25.47-1.76-10,3.52-20,6.78-30.08,9.86,3.74-4.57,9-7.91,13.23-12,3.5-3.35,8.67-6.67,9.67-11.83.76-3.94-1.78-6.37-5.64-6.32-8.24.1-13.63,7.67-17.63,13.9-5.08,7.89-10.23,15.86-13.84,24.56"/><path class="cls-33" d="M1587.26,197s39.24,2.13,57.34-46.54l-48.52,31.16S1594.28,186.75,1587.26,197Z"/><path class="cls-31" d="M1645.35,147.93c-29.36,1.37-45.58-30.87-46.74-56.28-.54-11.11,3-24.45.18-34.8-3.55-15-20.33-12.43-24.24,1-4,12.61-.49,27.65,4.19,39.72-3.89-12.19-16.23-24.66-29.8-24.54-18.84-.27-17.81,19.16-11.5,31.38,5.33,11.15,14.81,18.07,24.67,24.93-10.92-5.89-23.57-12.72-35.6-5.25-12.87,7.94-10.28,22-4.49,33.76a46,46,0,0,0,14.74,16.77c12.32,8.87,27.28,12.2,42.27,11.85,12.71-.3,26-1.32,37.68-6.88,10-5.15,27.08-19.73,28.43-31.54"/><path class="cls-14" d="M1714.78,172.63l41.3,3.28s67.74,8.26,29.88,72.8Z"/><ellipse class="cls-18" cx="1722.86" cy="153.46" rx="10.98" ry="4.52" transform="translate(705.1 1552.02) rotate(-59.05)"/><ellipse class="cls-18" cx="1738.99" cy="159.29" rx="10.98" ry="4.52" transform="translate(1427.16 1877.49) rotate(-84.95)"/><path class="cls-34" d="M468.66,883.25s87.93-45.6,87.93,0C556.59,927.43,468.66,883.25,468.66,883.25Z"/><path class="cls-34" d="M459.85,856.53s16.45-57.21,36.34-38.36C515.46,836.43,459.85,856.53,459.85,856.53Z"/><path class="cls-34" d="M1800.54,695.69s66-73.87,82.19-31.25C1898.43,705.74,1800.54,695.69,1800.54,695.69Z"/><path class="cls-34" d="M1782.8,673.84s-5-59.32,20.35-48.77C1827.65,635.29,1782.8,673.84,1782.8,673.84Z"/></g></g></svg>